<?xml version="1.0" encoding="utf-8"?>
<!-- Generator: Adobe Illustrator 16.0.0, SVG Export Plug-In . SVG Version: 6.00 Build 0)  -->
<!DOCTYPE svg PUBLIC "-//W3C//DTD SVG 1.1//EN" "http://www.w3.org/Graphics/SVG/1.1/DTD/svg11.dtd">
<svg version="1.1" id="Layer_1" xmlns="http://www.w3.org/2000/svg" xmlns:xlink="http://www.w3.org/1999/xlink" x="0px" y="0px"
	 width="500px" height="500px" viewBox="0 0 500 500" enable-background="new 0 0 500 500" xml:space="preserve">
<rect fill="none" width="500" height="500"/>
<rect fill="none" width="500" height="500"/>
<g>
	<path fill="#ED1C24" d="M103.576,348.172c-1.294,0-2.567-0.227-3.812-0.674c-1.249-0.451-2.383-1.139-3.404-2.068l2.211-2.652
		c0.777,0.631,1.575,1.131,2.393,1.506c0.819,0.373,1.713,0.561,2.685,0.561c0.778,0,1.379-0.141,1.809-0.426
		c0.429-0.279,0.643-0.674,0.643-1.174v-0.051c0-0.24-0.041-0.457-0.132-0.643c-0.089-0.186-0.258-0.361-0.511-0.523
		c-0.249-0.158-0.599-0.32-1.044-0.482c-0.442-0.16-1.025-0.328-1.736-0.51c-0.858-0.211-1.637-0.443-2.333-0.703
		c-0.697-0.258-1.287-0.582-1.773-0.957c-0.489-0.381-0.862-0.85-1.128-1.422c-0.271-0.564-0.402-1.266-0.402-2.107v-0.051
		c0-0.773,0.145-1.473,0.433-2.1c0.291-0.619,0.699-1.158,1.221-1.611c0.523-0.451,1.148-0.795,1.872-1.043
		c0.727-0.242,1.529-0.365,2.402-0.365c1.249,0,2.397,0.189,3.441,0.564c1.042,0.379,2.003,0.916,2.875,1.619l-1.941,2.824
		c-0.76-0.518-1.509-0.926-2.235-1.227c-0.73-0.297-1.459-0.447-2.189-0.447c-0.726,0-1.273,0.139-1.641,0.42
		c-0.363,0.283-0.545,0.635-0.545,1.057v0.047c0,0.279,0.054,0.514,0.159,0.717c0.106,0.199,0.298,0.387,0.571,0.547
		c0.273,0.162,0.654,0.314,1.13,0.461c0.478,0.145,1.08,0.313,1.811,0.51c0.856,0.227,1.622,0.48,2.295,0.764
		c0.672,0.283,1.24,0.621,1.699,1.02c0.462,0.396,0.812,0.857,1.044,1.396c0.236,0.529,0.353,1.168,0.353,1.914v0.049
		c0,0.84-0.152,1.586-0.457,2.242c-0.307,0.652-0.733,1.203-1.28,1.648c-0.549,0.445-1.199,0.787-1.961,1.018
		C105.342,348.055,104.5,348.172,103.576,348.172"/>
	<polygon fill="#ED1C24" points="125.224,330.92 138.028,330.92 138.028,334.254 128.918,334.254 128.918,337.699 136.938,337.699 
		136.938,341.031 128.918,341.031 128.918,344.602 138.148,344.602 138.148,347.926 125.224,347.926 	"/>
	<path fill="#ED1C24" d="M161.624,348.221c-1.247,0-2.405-0.227-3.476-0.68c-1.067-0.453-1.992-1.074-2.767-1.859
		c-0.78-0.787-1.387-1.715-1.827-2.779c-0.436-1.074-0.653-2.213-0.653-3.428v-0.053c0-1.211,0.217-2.35,0.653-3.412
		c0.439-1.059,1.046-1.992,1.827-2.793c0.775-0.801,1.706-1.436,2.793-1.895c1.081-0.461,2.281-0.697,3.594-0.697
		c0.794,0,1.517,0.068,2.176,0.199c0.655,0.129,1.25,0.309,1.784,0.531c0.537,0.23,1.03,0.504,1.482,0.828
		c0.453,0.324,0.872,0.682,1.264,1.07L166.097,336c-0.669-0.602-1.345-1.07-2.034-1.412c-0.686-0.334-1.463-0.51-2.32-0.51
		c-0.713,0-1.369,0.139-1.977,0.416c-0.608,0.273-1.131,0.654-1.567,1.139c-0.439,0.486-0.78,1.051-1.02,1.688
		c-0.243,0.641-0.365,1.326-0.365,2.055v0.047c0,0.73,0.122,1.42,0.365,2.068c0.24,0.648,0.578,1.213,1.01,1.703
		c0.425,0.482,0.943,0.871,1.551,1.154c0.608,0.281,1.277,0.42,2.003,0.42c0.973,0,1.797-0.176,2.465-0.531
		c0.676-0.357,1.345-0.844,2.003-1.459l2.385,2.406c-0.439,0.473-0.892,0.891-1.361,1.264c-0.47,0.373-0.98,0.695-1.541,0.959
		c-0.561,0.268-1.172,0.469-1.838,0.607S162.448,348.221,161.624,348.221"/>
	<path fill="#ED1C24" d="M190.825,348.197c-2.28,0-4.081-0.637-5.392-1.896c-1.311-1.264-1.97-3.152-1.97-5.662v-9.719h3.743v9.625
		c0,1.391,0.325,2.441,0.97,3.145c0.652,0.703,1.551,1.059,2.699,1.059c1.152,0,2.047-0.34,2.696-1.021s0.973-1.699,0.973-3.061
		v-9.746h3.74v9.602c0,1.297-0.172,2.418-0.52,3.373c-0.348,0.957-0.845,1.754-1.497,2.396c-0.645,0.639-1.432,1.115-2.354,1.432
		C192.987,348.037,191.96,348.197,190.825,348.197"/>
	<path fill="#ED1C24" d="M214.25,330.924h7.773c2.155,0,3.804,0.574,4.956,1.725c0.973,0.967,1.457,2.264,1.457,3.889v0.047
		c0,1.373-0.332,2.498-1.007,3.363c-0.672,0.867-1.551,1.506-2.632,1.908l4.152,6.074h-4.375l-3.645-5.443h-2.939v5.443h-3.739
		V330.924z M221.78,339.16c0.922,0,1.632-0.221,2.129-0.656c0.493-0.436,0.74-1.014,0.74-1.74v-0.047
		c0-0.807-0.26-1.412-0.781-1.814c-0.517-0.404-1.236-0.604-2.162-0.604h-3.717v4.861H221.78z"/>
	<rect x="244.135" y="330.924" fill="#ED1C24" width="3.739" height="17.006"/>
	<polygon fill="#ED1C24" points="268.235,334.373 263.06,334.373 263.06,330.924 277.153,330.924 277.153,334.373 271.975,334.373 
		271.975,347.93 268.235,347.93 	"/>
	<rect x="292.336" y="330.924" fill="#ED1C24" width="3.739" height="17.006"/>
	<polygon fill="#ED1C24" points="312.479,330.92 325.283,330.92 325.283,334.254 316.173,334.254 316.173,337.699 324.193,337.699 
		324.193,341.031 316.173,341.031 316.173,344.602 325.406,344.602 325.406,347.926 312.479,347.926 	"/>
	<path fill="#ED1C24" d="M346.955,348.172c-1.293,0-2.567-0.227-3.813-0.674c-1.249-0.451-2.382-1.139-3.401-2.068l2.212-2.652
		c0.777,0.631,1.575,1.131,2.392,1.506c0.822,0.373,1.714,0.561,2.686,0.561c0.777,0,1.379-0.141,1.809-0.426
		c0.429-0.279,0.645-0.674,0.645-1.174v-0.051c0-0.24-0.04-0.457-0.132-0.643c-0.09-0.186-0.26-0.361-0.513-0.523
		c-0.248-0.158-0.598-0.32-1.044-0.482c-0.443-0.16-1.023-0.328-1.736-0.51c-0.859-0.211-1.636-0.443-2.332-0.703
		c-0.698-0.258-1.29-0.582-1.773-0.957c-0.49-0.381-0.861-0.85-1.132-1.422c-0.267-0.564-0.398-1.266-0.398-2.107v-0.051
		c0-0.773,0.143-1.473,0.433-2.1c0.291-0.619,0.699-1.158,1.223-1.611c0.521-0.451,1.143-0.795,1.872-1.043
		c0.727-0.242,1.523-0.365,2.398-0.365c1.251,0,2.395,0.189,3.438,0.564c1.044,0.379,2.007,0.916,2.879,1.619l-1.938,2.824
		c-0.768-0.518-1.51-0.926-2.237-1.227c-0.729-0.297-1.46-0.447-2.189-0.447c-0.726,0-1.277,0.139-1.642,0.42
		c-0.361,0.283-0.544,0.635-0.544,1.057v0.047c0,0.279,0.054,0.514,0.159,0.717c0.104,0.199,0.294,0.387,0.571,0.547
		c0.272,0.162,0.648,0.314,1.131,0.461c0.478,0.145,1.078,0.313,1.808,0.51c0.857,0.227,1.622,0.48,2.298,0.764
		c0.672,0.283,1.239,0.621,1.699,1.02c0.459,0.396,0.811,0.857,1.043,1.396c0.237,0.529,0.356,1.168,0.356,1.914v0.049
		c0,0.84-0.153,1.586-0.461,2.242c-0.307,0.652-0.732,1.203-1.282,1.648c-0.541,0.445-1.197,0.787-1.958,1.018
		C348.722,348.055,347.882,348.172,346.955,348.172"/>
	<g>
		<defs>
			<path id="SVGID_1_" d="M316.588,200.508c-8.864,0-17.198,3.07-23.452,8.648c-6.871,6.125-10.654,14.666-10.654,24.036l43.4-0.719
				h44.364c8.827,0,15.982-7.155,15.982-15.986c0-8.821-7.155-15.979-15.982-15.979H316.588z"/>
		</defs>
		<clipPath id="SVGID_2_">
			<use xlink:href="#SVGID_1_"  overflow="visible"/>
		</clipPath>
		
			<linearGradient id="SVGID_3_" gradientUnits="userSpaceOnUse" x1="-3.1279" y1="494.5781" x2="0.3316" y2="494.5781" gradientTransform="matrix(-30.4072 0.1968 0.1968 30.4072 227.7668 -14821.7793)">
			<stop  offset="0" style="stop-color:#ED1C24"/>
			<stop  offset="0.3526" style="stop-color:#ED1C24"/>
			<stop  offset="0.9135" style="stop-color:#670000"/>
			<stop  offset="1" style="stop-color:#670000"/>
		</linearGradient>
		<polygon clip-path="url(#SVGID_2_)" fill="url(#SVGID_3_)" points="386.438,233.192 282.484,233.865 282.269,200.512 
			386.225,199.835 		"/>
	</g>
	<g>
		<defs>
			<path id="SVGID_4_" d="M343.536,272.996h-44.362c-8.824,0-15.979,7.158-15.979,15.986c0,8.822,7.155,15.982,15.979,15.982h53.656
				c8.869,0,17.196-3.072,23.456-8.652c6.867-6.129,10.651-14.662,10.651-24.033L343.536,272.996z"/>
		</defs>
		<clipPath id="SVGID_5_">
			<use xlink:href="#SVGID_4_"  overflow="visible"/>
		</clipPath>
		
			<linearGradient id="SVGID_6_" gradientUnits="userSpaceOnUse" x1="-1.0503" y1="503.2422" x2="2.4083" y2="503.2422" gradientTransform="matrix(35.1306 -0.2952 -0.2952 -35.1306 420.1388 17968.3906)">
			<stop  offset="0" style="stop-color:#ED1C24"/>
			<stop  offset="0.3825" style="stop-color:#ED1C24"/>
			<stop  offset="0.9135" style="stop-color:#670000"/>
			<stop  offset="1" style="stop-color:#670000"/>
		</linearGradient>
		<polygon clip-path="url(#SVGID_5_)" fill="url(#SVGID_6_)" points="282.92,272.283 386.932,271.408 387.211,304.961 
			283.201,305.836 		"/>
	</g>
	<g>
		<defs>
			<path id="SVGID_7_" d="M352.83,304.965c0.03,0,0.064,0,0.092,0C352.888,304.965,352.86,304.965,352.83,304.965 M293.136,209.156
				c-6.871,6.125-10.654,14.666-10.654,24.036c0,14.487,14.831,21.581,20.415,24.247c7.539,3.607,38.056,14.492,43.769,16.793
				c27.857,11.543,20.84,30.654,6.257,30.732c8.831-0.021,17.128-3.092,23.364-8.652c6.867-6.129,10.651-14.662,10.651-24.033
				c0-14.482-14.827-21.58-20.411-24.252c-7.544-3.604-38.064-14.489-43.772-16.787c-27.854-11.547-20.838-30.657-6.254-30.731
				C307.666,200.524,299.373,203.596,293.136,209.156 M316.5,200.508c0.028,0,0.058,0,0.088,0
				C316.558,200.508,316.528,200.508,316.5,200.508"/>
		</defs>
		<clipPath id="SVGID_8_">
			<use xlink:href="#SVGID_7_"  overflow="visible"/>
		</clipPath>
		
			<linearGradient id="SVGID_9_" gradientUnits="userSpaceOnUse" x1="-2.5029" y1="502.7139" x2="0.9554" y2="502.7139" gradientTransform="matrix(31.2928 31.9816 31.9816 -31.2928 -15699.4111 16028.4932)">
			<stop  offset="0" style="stop-color:#C4161C"/>
			<stop  offset="0.184" style="stop-color:#ED1C24"/>
			<stop  offset="0.6135" style="stop-color:#8B0304"/>
			<stop  offset="0.7161" style="stop-color:#850001"/>
			<stop  offset="0.883" style="stop-color:#740000"/>
			<stop  offset="0.9835" style="stop-color:#670000"/>
			<stop  offset="1" style="stop-color:#670000"/>
		</linearGradient>
		<polygon clip-path="url(#SVGID_8_)" fill="url(#SVGID_9_)" points="335.845,148.293 439.152,253.875 333.571,357.178 
			230.267,251.598 		"/>
	</g>
	<g>
		<defs>
			<path id="SVGID_10_" d="M311.021,200.923c-0.855,0.244-1.692,0.554-2.496,0.973c-2.547,1.283-4.717,3.591-5.76,6.469
				c-1.045,2.889-0.82,6.155,0.227,8.979c1.03,2.858,2.844,5.277,4.844,7.358c2.018,2.084,4.298,3.841,6.688,5.334
				c2.407,1.517,4.876,2.757,7.483,3.882c5.048,2.063,10.014,3.895,15.03,5.776l7.523,2.757l7.522,2.713
				c4.994,1.828,10.082,3.546,14.805,5.574c2.392,1.029,4.682,2.198,6.889,3.502c2.206,1.301,4.283,2.801,6.131,4.551
				c1.879,1.717,3.479,3.732,4.71,6c1.22,2.268,2,4.816,2.32,7.486c0-14.482-14.827-21.58-20.411-24.252
				c-7.544-3.604-38.064-14.489-43.772-16.787c-27.462-11.38-21.027-30.12-6.864-30.719
				C314.237,200.549,312.616,200.688,311.021,200.923"/>
		</defs>
		<clipPath id="SVGID_11_">
			<use xlink:href="#SVGID_10_"  overflow="visible"/>
		</clipPath>
		
			<linearGradient id="SVGID_12_" gradientUnits="userSpaceOnUse" x1="0.1772" y1="502.6699" x2="3.6381" y2="502.6699" gradientTransform="matrix(56.6705 0 0 -56.6705 292.0313 28722.9199)">
			<stop  offset="0" style="stop-color:#ED1C24"/>
			<stop  offset="0.184" style="stop-color:#ED1C24"/>
			<stop  offset="1" style="stop-color:#8B0304"/>
		</linearGradient>
		<rect x="295.292" y="200.521" clip-path="url(#SVGID_11_)" fill="url(#SVGID_12_)" width="91.646" height="71.758"/>
	</g>
	<g>
		<defs>
			<path id="SVGID_13_" d="M302.896,257.439c7.539,3.607,38.056,14.492,43.769,16.795c27.465,11.379,21.026,30.115,6.868,30.713
				c1.645-0.027,3.27-0.166,4.865-0.4c0.854-0.242,1.692-0.557,2.499-0.975c2.548-1.283,4.713-3.592,5.761-6.467
				c1.047-2.887,0.817-6.156-0.23-8.98c-1.033-2.855-2.844-5.273-4.841-7.355c-2.02-2.092-4.297-3.844-6.692-5.338
				c-2.402-1.514-4.871-2.754-7.479-3.881c-5.048-2.063-10.019-3.9-15.03-5.777l-7.523-2.758l-7.524-2.713
				c-4.992-1.824-10.081-3.545-14.807-5.573c-2.398-1.03-4.679-2.195-6.889-3.501c-2.205-1.3-4.287-2.803-6.131-4.549
				c-1.879-1.717-3.48-3.733-4.706-6c-1.223-2.271-2.007-4.818-2.324-7.487C282.481,247.679,297.313,254.773,302.896,257.439"/>
		</defs>
		<clipPath id="SVGID_14_">
			<use xlink:href="#SVGID_13_"  overflow="visible"/>
		</clipPath>
		
			<linearGradient id="SVGID_15_" gradientUnits="userSpaceOnUse" x1="-1.6182" y1="502.2793" x2="1.8421" y2="502.2793" gradientTransform="matrix(43.9038 30.6984 30.6984 -43.9038 -15062.1846 22341.0469)">
			<stop  offset="0" style="stop-color:#ED1C24"/>
			<stop  offset="0.184" style="stop-color:#ED1C24"/>
			<stop  offset="1" style="stop-color:#8B0304"/>
		</linearGradient>
		<polygon clip-path="url(#SVGID_14_)" fill="url(#SVGID_15_)" points="312.574,190.153 407.825,256.754 344.037,347.986 
			248.783,281.383 		"/>
	</g>
	<g>
		<defs>
			<path id="SVGID_16_" d="M169.384,252.732v36.25c0,8.822,7.158,15.982,15.986,15.982s15.982-7.16,15.982-15.982v-36.25H169.384z"
				/>
		</defs>
		<clipPath id="SVGID_17_">
			<use xlink:href="#SVGID_16_"  overflow="visible"/>
		</clipPath>
		
			<linearGradient id="SVGID_18_" gradientUnits="userSpaceOnUse" x1="3.4932" y1="505.7949" x2="6.9535" y2="505.7949" gradientTransform="matrix(3.9302 -16.5352 -16.5352 -3.9302 8521.5557 2381.3743)">
			<stop  offset="0" style="stop-color:#ED1C24"/>
			<stop  offset="0.6071" style="stop-color:#ED1C24"/>
			<stop  offset="0.9835" style="stop-color:#670000"/>
			<stop  offset="1" style="stop-color:#670000"/>
		</linearGradient>
		<polygon clip-path="url(#SVGID_17_)" fill="url(#SVGID_18_)" points="157.634,302.17 171.093,245.544 213.102,255.527 
			199.643,312.156 		"/>
	</g>
	<g>
		<defs>
			<path id="SVGID_19_" d="M201.352,232.473h34.188c3.496,0,6.334,2.845,6.334,6.332s-2.838,6.327-6.334,6.327h-34.188V232.473z
				 M185.393,200.508h-0.023c-8.828,0-15.986,7.158-15.986,15.979v38.384c0,1.07,0.108,2.115,0.307,3.125
				c-0.199,1.01-0.307,2.051-0.307,3.121c0,8.824,7.158,15.984,15.986,15.984h50.171c21.121,0,38.299-17.188,38.299-38.297
				c0-21.119-17.179-38.296-38.299-38.296H185.393z"/>
		</defs>
		<clipPath id="SVGID_20_">
			<use xlink:href="#SVGID_19_"  overflow="visible"/>
		</clipPath>
		
			<linearGradient id="SVGID_21_" gradientUnits="userSpaceOnUse" x1="-7.3105" y1="496.5" x2="-3.8513" y2="496.5" gradientTransform="matrix(-7.1836 23.9124 23.9124 7.1836 -11681.9912 -3224.2522)">
			<stop  offset="0" style="stop-color:#ED1C24"/>
			<stop  offset="0.5042" style="stop-color:#ED1C24"/>
			<stop  offset="0.8231" style="stop-color:#790000"/>
			<stop  offset="1" style="stop-color:#670000"/>
		</linearGradient>
		<polygon clip-path="url(#SVGID_20_)" fill="url(#SVGID_21_)" points="294.943,206.849 265.194,305.881 148.281,270.76 
			178.032,171.725 		"/>
	</g>
	<g>
		<defs>
			<path id="SVGID_22_" d="M259.607,221.348c0,13.034-9.777,23.655-21.844,23.783h-2.223h-11.729H185.37
				c-8.828,0-15.986-7.151-15.986-12.398v30.708c0,0,0.463,7.838,11.969,11.947c7.49,1.904,15.041,1.611,28.675,1.713
				c4.628-0.025,25.513,0,25.513,0c21.121,0,38.299-17.188,38.299-38.297c0-14.325-7.905-26.828-19.58-33.395
				C257.816,210.163,259.607,216.44,259.607,221.348"/>
		</defs>
		<clipPath id="SVGID_23_">
			<use xlink:href="#SVGID_22_"  overflow="visible"/>
		</clipPath>
		
			<linearGradient id="SVGID_24_" gradientUnits="userSpaceOnUse" x1="-3.5942" y1="501.4473" x2="-0.1341" y2="501.4473" gradientTransform="matrix(34.8354 35.0322 35.0322 -34.8354 -17259.1563 17795.9258)">
			<stop  offset="0" style="stop-color:#C4161C"/>
			<stop  offset="0.184" style="stop-color:#ED1C24"/>
			<stop  offset="0.6135" style="stop-color:#8B0304"/>
			<stop  offset="0.7161" style="stop-color:#850001"/>
			<stop  offset="0.883" style="stop-color:#740000"/>
			<stop  offset="0.9835" style="stop-color:#670000"/>
			<stop  offset="1" style="stop-color:#670000"/>
		</linearGradient>
		<polygon clip-path="url(#SVGID_23_)" fill="url(#SVGID_24_)" points="221.906,153.185 309.781,241.555 221.317,329.518 
			133.444,241.149 		"/>
	</g>
	<g>
		<defs>
			<path id="SVGID_25_" d="M259.604,221.348c0,13.034-9.773,23.655-21.84,23.787H185.37c-8.828,0-15.986-7.154-15.986-12.401v1.331
				c0.084,0.91,0.328,1.815,0.668,2.669c0.537,1.281,1.291,2.463,2.166,3.548c1.763,2.165,4.081,3.889,6.682,5.094
				c1.311,0.591,2.703,1.016,4.138,1.283c0.365,0.068,0.723,0.123,1.088,0.172c0.341,0.041,0.787,0.079,1.087,0.098l2.014,0.122
				c2.652,0.159,5.304,0.244,7.952,0.369c10.608,0.459,21.216,0.635,31.82,0.638l7.952-0.037c1.338-0.034,2.588,0.003,4.169-0.107
				c1.507-0.119,2.997-0.386,4.442-0.805c5.811-1.645,10.75-5.611,13.75-10.577c1.517-2.479,2.648-5.175,3.242-7.973
				c0.596-2.787,0.754-5.672,0.444-8.456c-0.373-2.794-1.141-5.466-2.282-7.953c-1.138-2.483-2.61-4.799-4.458-6.739
				C257.816,210.163,259.604,216.44,259.604,221.348"/>
		</defs>
		<clipPath id="SVGID_26_">
			<use xlink:href="#SVGID_25_"  overflow="visible"/>
		</clipPath>
		
			<linearGradient id="SVGID_27_" gradientUnits="userSpaceOnUse" x1="0.4189" y1="502.6963" x2="3.876" y2="502.6963" gradientTransform="matrix(52.8095 -30.7652 -30.7652 -52.8095 15647.3418 26793.3652)">
			<stop  offset="0" style="stop-color:#ED1C24"/>
			<stop  offset="0.184" style="stop-color:#ED1C24"/>
			<stop  offset="0.6135" style="stop-color:#8B0304"/>
			<stop  offset="0.7207" style="stop-color:#850001"/>
			<stop  offset="0.895" style="stop-color:#740000"/>
			<stop  offset="1" style="stop-color:#670000"/>
		</linearGradient>
		<polygon clip-path="url(#SVGID_26_)" fill="url(#SVGID_27_)" points="150.835,216.217 238.017,165.428 279.86,237.25 
			192.676,288.039 		"/>
	</g>
	<g>
		<defs>
			<path id="SVGID_28_" d="M169.384,263.182c0.084,0.904,0.328,1.814,0.668,2.676c0.537,1.273,1.291,2.459,2.166,3.539
				c1.763,2.168,4.081,3.893,6.682,5.096c1.311,0.592,2.703,1.018,4.138,1.287c6.233,1.385,17.773,1.342,25.614,1.291
				c2.267-0.014,4.223-0.027,5.655-0.008l21.236,0.039c10.476,0,19.976-4.234,26.894-11.068c-6.888,5.098-14.81,8.084-22.803,8.533
				c-0.993,0.057-2.024,0.088-2.973,0.057l-1.547-0.043l-1.595-0.061c-2.125-0.092-4.25-0.129-6.375-0.193l-6.378-0.117
				l-10.483,0.043H185.37c-8.828,0-15.986-7.154-15.986-12.396V263.182z"/>
		</defs>
		<clipPath id="SVGID_29_">
			<use xlink:href="#SVGID_28_"  overflow="visible"/>
		</clipPath>
		
			<linearGradient id="SVGID_30_" gradientUnits="userSpaceOnUse" x1="0.4634" y1="502.2871" x2="3.9215" y2="502.2871" gradientTransform="matrix(50.8754 -29.8167 -29.8167 -50.8754 15177.3135 25832.4492)">
			<stop  offset="0" style="stop-color:#ED1C24"/>
			<stop  offset="0.184" style="stop-color:#ED1C24"/>
			<stop  offset="0.6135" style="stop-color:#8B0304"/>
			<stop  offset="0.7207" style="stop-color:#850001"/>
			<stop  offset="0.895" style="stop-color:#740000"/>
			<stop  offset="1" style="stop-color:#670000"/>
		</linearGradient>
		<polygon clip-path="url(#SVGID_29_)" fill="url(#SVGID_30_)" points="162.705,265.766 238.648,221.26 269.117,273.25 
			193.176,317.758 		"/>
	</g>
	<path fill="#ED1C24" d="M450,182.238c-7.676-18.543-22.08-32.975-40.553-40.634c-0.304-0.125-0.604-0.243-0.902-0.365
		c-0.615-0.246-1.229-0.486-1.851-0.712c-0.619-0.229-1.237-0.446-1.861-0.659c-0.626-0.213-1.251-0.419-1.879-0.611
		c-0.629-0.193-1.26-0.382-1.896-0.561c-0.628-0.176-1.264-0.348-1.901-0.506c-0.633-0.163-1.274-0.318-1.912-0.463
		c-0.64-0.143-1.277-0.281-1.919-0.406c-0.646-0.125-1.288-0.247-1.933-0.358c-0.646-0.112-1.29-0.21-1.936-0.304
		c-0.651-0.095-1.298-0.179-1.95-0.256c-0.645-0.075-1.297-0.143-1.949-0.203c-0.651-0.061-1.3-0.111-1.952-0.152
		c-0.651-0.044-1.304-0.078-1.956-0.104c-0.655-0.024-1.304-0.038-1.959-0.048c-0.655-0.007-1.308-0.007-1.963,0.004
		c-0.652,0.01-1.308,0.026-1.956,0.05c-0.655,0.027-1.308,0.064-1.963,0.108c-0.324,0.021-1.271,0.075-1.416,0.095
		c-0.151,0.027-0.301,0.068-0.436,0.139c-0.419,0.229-0.683,0.676-0.683,1.155c0,0.257,0.078,0.517,0.22,0.729
		c0.143,0.21,0.378,0.396,0.622,0.47c0.224,0.064,0.452,0.088,0.679,0.081c0.158-0.007,0.321-0.023,0.483-0.037
		c0.324-0.024,0.648-0.047,0.977-0.068c0.652-0.044,1.304-0.075,1.959-0.098c0.652-0.021,1.308-0.037,1.96-0.041
		c0.651-0.007,1.308-0.003,1.959,0.01c0.655,0.01,1.308,0.034,1.96,0.061c0.651,0.03,1.307,0.074,1.956,0.118
		c0.651,0.047,1.3,0.108,1.952,0.172c0.648,0.067,1.301,0.139,1.945,0.227c0.648,0.077,1.298,0.172,1.946,0.274
		c0.642,0.101,1.29,0.209,1.932,0.327c0.646,0.122,1.288,0.25,1.93,0.385c0.642,0.132,1.277,0.281,1.919,0.436
		c0.635,0.152,1.273,0.314,1.905,0.483c0.632,0.172,1.267,0.351,1.896,0.543c0.631,0.186,1.26,0.382,1.882,0.591
		c0.628,0.203,1.25,0.419,1.868,0.642c0.624,0.227,1.243,0.453,1.857,0.696c0.459,0.18,0.912,0.365,1.372,0.551
		c17.834,7.391,31.738,21.326,39.147,39.231c4.554,10.994,6.361,22.973,5.24,34.634c-0.687,7.115-2.439,14.107-5.21,20.79
		c-3.905,9.422-9.551,17.669-16.777,24.601c-0.311,0.344-0.594,0.619-0.594,1.072c0,0.723,0.585,1.311,1.311,1.311
		c0.393,0,0.729-0.18,0.976-0.453c7.548-7.176,13.422-15.746,17.479-25.541c2.868-6.912,4.684-14.162,5.392-21.529
		C456.588,206.032,454.717,193.624,450,182.238"/>
	<path fill="#ED1C24" d="M415.464,196.535c3.53,8.527,3.952,17.74,1.29,26.391c-0.04,0.105-0.047,0.209-0.064,0.321
		c-0.046,0.264,0,0.531,0.13,0.763c0.222,0.423,0.671,0.693,1.154,0.693c0.602,0,1.085-0.418,1.237-0.972
		c2.861-9.207,2.425-19.068-1.348-28.188c-0.011-0.021-0.021-0.041-0.028-0.065c-0.151-0.368-0.317-0.74-0.483-1.104
		c-0.161-0.369-0.33-0.73-0.506-1.091c-0.18-0.362-0.358-0.72-0.545-1.075c-0.181-0.355-0.374-0.703-0.567-1.054
		c-0.195-0.345-0.396-0.689-0.601-1.034c-0.206-0.341-0.412-0.675-0.628-1.014c-0.211-0.331-0.43-0.661-0.652-0.993
		c-0.223-0.327-0.446-0.652-0.683-0.969c-0.227-0.325-0.463-0.639-0.707-0.954c-0.235-0.31-0.481-0.621-0.729-0.925
		c-0.247-0.311-0.5-0.611-0.757-0.909c-0.258-0.298-0.518-0.595-0.777-0.885c-0.267-0.292-0.533-0.575-0.808-0.858
		c-0.27-0.284-0.548-0.565-0.827-0.838c-0.277-0.271-0.561-0.544-0.849-0.812c-0.286-0.267-0.577-0.527-0.871-0.787
		c-0.291-0.257-0.588-0.51-0.889-0.76c-0.3-0.253-0.604-0.497-0.911-0.736c-0.305-0.244-0.615-0.476-0.934-0.709
		c-0.311-0.234-0.627-0.459-0.945-0.686c-0.318-0.22-0.646-0.443-0.97-0.656c-0.324-0.216-0.652-0.422-0.986-0.628
		c-0.328-0.206-0.662-0.405-1-0.601c-0.339-0.192-0.676-0.389-1.021-0.571c-0.341-0.186-0.686-0.364-1.033-0.543
		c-0.345-0.175-0.696-0.348-1.048-0.514c-0.354-0.166-0.709-0.324-1.067-0.482c-0.354-0.16-0.713-0.308-1.074-0.457
		c-0.362-0.146-0.726-0.284-1.092-0.422c-0.363-0.135-0.732-0.26-1.102-0.388c-0.371-0.125-0.739-0.248-1.114-0.362
		c-0.374-0.115-0.75-0.22-1.128-0.325c-0.375-0.104-0.754-0.199-1.135-0.294c-0.378-0.095-0.761-0.179-1.146-0.26
		c-0.386-0.081-0.771-0.159-1.155-0.227c-0.092-0.02-0.187-0.041-0.284-0.044c-0.107-0.003-0.213,0.003-0.32,0.031
		c-0.213,0.057-0.413,0.168-0.574,0.316c-0.268,0.244-0.42,0.599-0.42,0.956c0,0.376,0.17,0.73,0.449,0.974
		c0.099,0.084,0.206,0.152,0.321,0.209c0.057,0.028,0.118,0.047,0.183,0.068c0.199,0.06,0.415,0.088,0.618,0.125
		c0.192,0.037,0.388,0.074,0.577,0.118c0.386,0.078,0.768,0.165,1.149,0.256s0.756,0.193,1.135,0.297
		c0.379,0.102,0.753,0.212,1.125,0.332c0.371,0.115,0.747,0.232,1.114,0.361c0.369,0.129,0.736,0.26,1.099,0.399
		c0.368,0.139,0.726,0.284,1.091,0.432c0.358,0.153,0.717,0.304,1.07,0.467c0.355,0.158,0.707,0.327,1.055,0.499
		c0.354,0.169,0.699,0.345,1.047,0.527c0.342,0.183,0.684,0.369,1.024,0.561c0.338,0.193,0.672,0.389,1.011,0.592
		c0.33,0.202,0.661,0.405,0.989,0.621c0.327,0.21,0.652,0.43,0.97,0.649c0.324,0.222,0.642,0.449,0.956,0.682
		c0.313,0.233,0.624,0.466,0.932,0.709c0.308,0.239,0.611,0.482,0.912,0.736c0.301,0.25,0.599,0.5,0.893,0.76
		c0.29,0.26,0.58,0.527,0.868,0.794c0.283,0.271,0.567,0.544,0.845,0.814c0.276,0.277,0.554,0.561,0.824,0.845
		c0.266,0.287,0.529,0.574,0.793,0.868c0.261,0.293,0.521,0.59,0.771,0.895c0.253,0.304,0.503,0.608,0.749,0.919
		c0.24,0.308,0.479,0.622,0.717,0.94c0.233,0.32,0.466,0.642,0.688,0.966c0.23,0.324,0.453,0.655,0.666,0.989
		c0.22,0.331,0.429,0.669,0.635,1.007c0.207,0.341,0.409,0.686,0.604,1.03c0.196,0.352,0.389,0.699,0.578,1.051
		c0.183,0.358,0.365,0.713,0.537,1.077c0.183,0.358,0.352,0.727,0.514,1.091C415.166,195.829,415.318,196.177,415.464,196.535"/>
	<path fill="#ED1C24" d="M428.133,191.289c-5.321-12.854-15.187-22.928-27.777-28.361c-12.688-5.476-26.694-5.587-39.444-0.313
		c-7.419,3.074-13.857,7.787-19.012,13.735c-0.218,0.227-0.365,0.585-0.365,0.899c0,0.723,0.587,1.311,1.311,1.311
		c0.551,0,0.942-0.497,1.209-0.824c4.747-5.372,10.746-9.781,17.851-12.723c24.735-10.237,53.367,1.996,63.833,27.27
		c9.395,22.704,0.919,48.738-19.256,61.058c-0.372,0.227-0.64,0.622-0.64,1.095c0,0.723,0.564,1.308,1.288,1.308
		c0.365,0,0.625-0.196,0.956-0.389c9.729-5.994,17.147-15.081,21.069-26.023C433.561,217.038,433.197,203.525,428.133,191.289"/>
	<path fill="#ED1C24" d="M435.064,243.212c0.577,0,0.92-0.385,1.224-0.895c6.624-11.689,9.614-25.428,7.827-39.404
		c-0.723-5.612-2.2-11.136-4.389-16.425c-1.098-2.649-2.386-5.213-3.814-7.683c-0.294-0.487-0.655-0.868-1.223-0.868
		c-0.727,0-1.312,0.587-1.312,1.311c0,0.276,0.109,0.523,0.234,0.747c1.392,2.404,2.651,4.905,3.72,7.486
		c2.101,5.073,3.517,10.378,4.205,15.759c0.088,0.719,0.172,1.439,0.237,2.158c0.066,0.724,0.118,1.442,0.158,2.166
		c0.044,0.716,0.07,1.436,0.084,2.155c0.015,0.717,0.015,1.433,0.004,2.149c-0.011,0.713-0.033,1.425-0.067,2.139
		c-0.041,0.71-0.088,1.415-0.148,2.125c-0.062,0.707-0.132,1.409-0.22,2.109c-0.088,0.703-0.183,1.401-0.294,2.098
		c-0.112,0.696-0.233,1.388-0.369,2.077c-0.132,0.689-0.273,1.375-0.432,2.063c-0.158,0.68-0.327,1.358-0.507,2.038
		c-0.179,0.675-0.372,1.348-0.574,2.016c-0.199,0.669-0.416,1.332-0.642,1.998c-0.224,0.654-0.464,1.313-0.706,1.965
		c-0.25,0.649-0.51,1.298-0.777,1.943c-0.271,0.642-0.551,1.28-0.842,1.912c-0.29,0.635-0.59,1.26-0.901,1.882
		c-0.311,0.625-0.632,1.239-0.97,1.851c-0.118,0.227-0.243,0.449-0.369,0.676c-0.202,0.354-0.448,0.715-0.448,1.142
		C433.754,242.625,434.341,243.212,435.064,243.212"/>
	<path fill="#ED1C24" d="M349.925,157.78c0.254,0,0.483-0.091,0.686-0.22c2.156-1.214,4.383-2.311,6.669-3.261
		c18.503-7.655,39.101-5.901,55.867,4.578c0.232,0.146,0.477,0.271,0.76,0.271c0.724,0,1.307-0.583,1.307-1.311
		c0-0.496-0.283-0.912-0.678-1.145c-17.479-10.936-38.955-12.771-58.245-4.788c-2.354,0.973-4.651,2.105-6.872,3.353
		c-0.226,0.125-0.463,0.313-0.604,0.533c-0.13,0.207-0.203,0.439-0.203,0.68C348.611,157.192,349.203,157.78,349.925,157.78"/>
	<g>
		<defs>
			<path id="SVGID_31_" d="M130.464,209.339L94.178,281.83c-2.483,4.955-2.218,10.838,0.693,15.553
				c2.912,4.717,8.061,7.582,13.599,7.582h0.083c6.821,0,12.644-4.268,14.938-10.287l35.563-71.028
				c3.949-7.892,0.75-17.5-7.142-21.453c-2.297-1.149-4.738-1.689-7.14-1.689C138.912,200.508,133.267,203.744,130.464,209.339"/>
		</defs>
		<clipPath id="SVGID_32_">
			<use xlink:href="#SVGID_31_"  overflow="visible"/>
		</clipPath>
		
			<linearGradient id="SVGID_33_" gradientUnits="userSpaceOnUse" x1="-3.1221" y1="494.5459" x2="0.3369" y2="494.5459" gradientTransform="matrix(-21.6491 24.4044 24.4044 21.6491 -11941.0547 -10454.5205)">
			<stop  offset="0" style="stop-color:#ED1C24"/>
			<stop  offset="0.4291" style="stop-color:#ED1C24"/>
			<stop  offset="0.8687" style="stop-color:#670000"/>
			<stop  offset="1" style="stop-color:#670000"/>
		</linearGradient>
		<polygon clip-path="url(#SVGID_32_)" fill="url(#SVGID_33_)" points="214.858,246.51 131.599,340.361 39.84,258.963 
			123.098,165.11 		"/>
	</g>
	<g>
		<defs>
			<path id="SVGID_34_" d="M65.113,202.197c-7.892,3.952-11.091,13.561-7.14,21.449l36.288,72.494
				c2.802,5.59,8.449,8.828,14.305,8.828c2.404,0,4.846-0.545,7.144-1.689c3.726-1.869,6.407-5.002,7.78-8.615v0.014l16.458-32.877
				c0,0-7.243,12.191-14.175,11.471c-5.767-0.59-11.686-8.941-14.554-14.668l-24.662-49.265c-2.798-5.595-8.445-8.831-14.302-8.831
				C69.853,200.508,67.41,201.048,65.113,202.197"/>
		</defs>
		<clipPath id="SVGID_35_">
			<use xlink:href="#SVGID_34_"  overflow="visible"/>
		</clipPath>
		
			<linearGradient id="SVGID_36_" gradientUnits="userSpaceOnUse" x1="-5.1777" y1="500.0977" x2="-1.7181" y2="500.0977" gradientTransform="matrix(33.0268 32.8703 32.8703 -33.0268 -16216.6895 16893.4121)">
			<stop  offset="0" style="stop-color:#C4161C"/>
			<stop  offset="0.2312" style="stop-color:#ED1C24"/>
			<stop  offset="0.6135" style="stop-color:#8B0304"/>
			<stop  offset="0.7161" style="stop-color:#850001"/>
			<stop  offset="0.883" style="stop-color:#740000"/>
			<stop  offset="0.9835" style="stop-color:#670000"/>
			<stop  offset="1" style="stop-color:#670000"/>
		</linearGradient>
		<polygon clip-path="url(#SVGID_35_)" fill="url(#SVGID_36_)" points="96.781,157.547 192.176,252.49 97.189,347.93 1.794,252.986 
					"/>
	</g>
	<g>
		<defs>
			<path id="SVGID_37_" d="M65.113,202.201c2.39-0.834,4.881-1.142,7.265-0.878c2.38,0.26,4.648,1.041,6.593,2.26
				c1.947,1.213,3.571,2.849,4.736,4.73c0.291,0.466,0.554,0.972,0.782,1.441c0.238,0.507,0.481,1.089,0.74,1.669l1.528,3.446
				c4.113,9.175,8.431,18.249,12.932,27.236c2.262,4.483,4.546,8.962,6.887,13.409l1.765,3.328c0.561,1.076,1.242,2.314,1.935,3.418
				c1.393,2.252,2.96,4.383,4.763,6.367c1.812,1.963,3.836,3.836,6.427,5.16c1.297,0.641,2.756,1.154,4.373,1.184
				c1.639,0.029,3.13-0.484,4.368-1.172c2.485-1.41,4.272-3.381,5.833-5.432c1.079-1.441,2.037-2.949,2.881-4.512l1.027-2.055
				c0,0-7.243,12.191-14.175,11.475c-5.767-0.594-11.686-8.945-14.55-14.672l-24.665-49.265c-2.798-5.595-8.442-8.834-14.302-8.834
				C69.853,200.505,67.41,201.052,65.113,202.201"/>
		</defs>
		<clipPath id="SVGID_38_">
			<use xlink:href="#SVGID_37_"  overflow="visible"/>
		</clipPath>
		
			<linearGradient id="SVGID_39_" gradientUnits="userSpaceOnUse" x1="-4.2485" y1="501.9063" x2="-0.7911" y2="501.9063" gradientTransform="matrix(42.887 17.8102 17.8102 -42.887 -8677.6025 21829.0176)">
			<stop  offset="0" style="stop-color:#ED1C24"/>
			<stop  offset="0.184" style="stop-color:#ED1C24"/>
			<stop  offset="0.6135" style="stop-color:#8B0304"/>
			<stop  offset="0.7207" style="stop-color:#850001"/>
			<stop  offset="0.895" style="stop-color:#740000"/>
			<stop  offset="1" style="stop-color:#670000"/>
		</linearGradient>
		<polygon clip-path="url(#SVGID_38_)" fill="url(#SVGID_39_)" points="76.122,173.999 166.333,211.463 128.94,301.504 
			38.727,264.039 		"/>
	</g>
</g>
</svg>
