<?xml version="1.0" encoding="UTF-8"?><svg xmlns="http://www.w3.org/2000/svg" xmlns:xlink="http://www.w3.org/1999/xlink" width="375pt" zoomAndPan="magnify" viewBox="0 0 375 374.999991" height="374.999991pt" preserveAspectRatio="xMidYMid meet" version="1.2"><defs><g/><clipPath xml:id="clip1" id="clip1"><path d="M 69.65625 2.574219 L 305.15625 2.574219 L 305.15625 160.824219 L 69.65625 160.824219 Z M 69.65625 2.574219 "/></clipPath><clipPath xml:id="clip2" id="clip2"><path d="M 106.414062 331 L 268.414062 331 L 268.414062 375 L 106.414062 375 Z M 106.414062 331 "/></clipPath><clipPath xml:id="clip3" id="clip3"><path d="M 106.414062 274.777344 L 268.414062 274.777344 L 268.414062 332 L 106.414062 332 Z M 106.414062 274.777344 "/></clipPath></defs><g xml:id="surface1" id="surface1"><rect x="0" width="375" y="0" height="374.999991" style="fill:rgb(100%,100%,100%);fill-opacity:1;stroke:none;"/><rect x="0" width="375" y="0" height="374.999991" style="fill:rgb(100%,100%,100%);fill-opacity:1;stroke:none;"/><rect x="0" width="375" y="0" height="374.999991" style="fill:rgb(90.979004%,90.979004%,90.979004%);fill-opacity:1;stroke:none;"/><g style="fill:rgb(0%,27.839661%,10.5896%);fill-opacity:1;"><g transform="translate(41.66706, 219.310796)"><path style="stroke:none;" d="M 3.328125 -45.015625 L 10.34375 -45.015625 L 19.5625 -23.34375 L 19.5625 -45.015625 L 27.796875 -45.015625 L 27.796875 0 L 21.0625 0 L 11.84375 -23.34375 L 11.84375 0 L 3.328125 0 Z M 3.328125 -45.015625 "/></g></g><g style="fill:rgb(0%,27.839661%,10.5896%);fill-opacity:1;"><g transform="translate(72.844337, 219.310796)"><path style="stroke:none;" d="M 3.5 -45.015625 L 13.453125 -45.015625 L 13.453125 -26.78125 L 20.390625 -26.78125 L 20.390625 -45.015625 L 30.40625 -45.015625 L 30.40625 0 L 20.390625 0 L 20.390625 -19.671875 L 13.453125 -19.671875 L 13.453125 0 L 3.5 0 Z M 3.5 -45.015625 "/></g></g><g style="fill:rgb(0%,27.839661%,10.5896%);fill-opacity:1;"><g transform="translate(106.744765, 219.310796)"><path style="stroke:none;" d="M 9.671875 -45.015625 L 21.015625 -45.015625 L 29.40625 0 L 20.234375 0 L 18.734375 -9.5 L 12.109375 -9.5 L 10.5625 0 L 1.171875 0 Z M 17.78125 -15.453125 L 15.390625 -33.015625 L 13 -15.453125 Z M 17.78125 -15.453125 "/></g></g><g style="fill:rgb(0%,27.839661%,10.5896%);fill-opacity:1;"><g transform="translate(137.366293, 219.310796)"><path style="stroke:none;" d=""/></g></g><g style="fill:rgb(0%,27.839661%,10.5896%);fill-opacity:1;"><g transform="translate(151.593357, 219.310796)"><path style="stroke:none;" d="M 3.328125 -45.015625 L 14.734375 -45.015625 C 18.617188 -45.015625 21.65625 -44.53125 23.84375 -43.5625 C 26.03125 -42.601562 27.578125 -41.09375 28.484375 -39.03125 C 29.390625 -36.976562 29.84375 -34.234375 29.84375 -30.796875 L 29.84375 -14.453125 C 29.84375 -10.960938 29.390625 -8.179688 28.484375 -6.109375 C 27.578125 -4.035156 26.039062 -2.5 23.875 -1.5 C 21.707031 -0.5 18.695312 0 14.84375 0 L 3.328125 0 Z M 14.84375 -6.890625 C 16.28125 -6.890625 17.34375 -7.101562 18.03125 -7.53125 C 18.71875 -7.957031 19.15625 -8.566406 19.34375 -9.359375 C 19.53125 -10.160156 19.625 -11.335938 19.625 -12.890625 L 19.625 -32.515625 C 19.625 -33.960938 19.519531 -35.0625 19.3125 -35.8125 C 19.101562 -36.570312 18.65625 -37.140625 17.96875 -37.515625 C 17.289062 -37.890625 16.226562 -38.078125 14.78125 -38.078125 L 13.28125 -38.078125 L 13.28125 -6.890625 Z M 14.84375 -6.890625 "/></g></g><g style="fill:rgb(0%,27.839661%,10.5896%);fill-opacity:1;"><g transform="translate(184.159999, 219.310796)"><path style="stroke:none;" d="M 9.671875 -45.015625 L 21.015625 -45.015625 L 29.40625 0 L 20.234375 0 L 18.734375 -9.5 L 12.109375 -9.5 L 10.5625 0 L 1.171875 0 Z M 17.78125 -15.453125 L 15.390625 -33.015625 L 13 -15.453125 Z M 17.78125 -15.453125 "/></g></g><g style="fill:rgb(0%,27.839661%,10.5896%);fill-opacity:1;"><g transform="translate(214.781527, 219.310796)"><path style="stroke:none;" d="M 16.34375 0.671875 C 12.96875 0.671875 10.296875 0.125 8.328125 -0.96875 C 6.367188 -2.0625 4.988281 -3.671875 4.1875 -5.796875 C 3.394531 -7.929688 3 -10.648438 3 -13.953125 L 3 -45.015625 L 12.84375 -45.015625 L 12.84375 -12.453125 C 12.84375 -10.628906 13.070312 -9.179688 13.53125 -8.109375 C 14 -7.035156 14.9375 -6.5 16.34375 -6.5 C 17.75 -6.5 18.671875 -7.035156 19.109375 -8.109375 C 19.554688 -9.179688 19.78125 -10.628906 19.78125 -12.453125 L 19.78125 -45.015625 L 29.671875 -45.015625 L 29.671875 -13.953125 C 29.671875 -10.648438 29.265625 -7.929688 28.453125 -5.796875 C 27.640625 -3.671875 26.257812 -2.0625 24.3125 -0.96875 C 22.363281 0.125 19.707031 0.671875 16.34375 0.671875 Z M 16.34375 0.671875 "/></g></g><g style="fill:rgb(0%,27.839661%,10.5896%);fill-opacity:1;"><g transform="translate(247.459314, 219.310796)"><path style="stroke:none;" d=""/></g></g><g style="fill:rgb(0%,27.839661%,10.5896%);fill-opacity:1;"><g transform="translate(261.686377, 219.310796)"><path style="stroke:none;" d="M 7.390625 -37.625 L 0.609375 -37.625 L 0.609375 -45.015625 L 24.125 -45.015625 L 24.125 -37.625 L 17.390625 -37.625 L 17.390625 0 L 7.390625 0 Z M 7.390625 -37.625 "/></g></g><g style="fill:rgb(0%,27.839661%,10.5896%);fill-opacity:1;"><g transform="translate(286.417029, 219.310796)"><path style="stroke:none;" d="M 16.34375 0.671875 C 12.96875 0.671875 10.296875 0.125 8.328125 -0.96875 C 6.367188 -2.0625 4.988281 -3.671875 4.1875 -5.796875 C 3.394531 -7.929688 3 -10.648438 3 -13.953125 L 3 -45.015625 L 12.84375 -45.015625 L 12.84375 -12.453125 C 12.84375 -10.628906 13.070312 -9.179688 13.53125 -8.109375 C 14 -7.035156 14.9375 -6.5 16.34375 -6.5 C 17.75 -6.5 18.671875 -7.035156 19.109375 -8.109375 C 19.554688 -9.179688 19.78125 -10.628906 19.78125 -12.453125 L 19.78125 -45.015625 L 29.671875 -45.015625 L 29.671875 -13.953125 C 29.671875 -10.648438 29.265625 -7.929688 28.453125 -5.796875 C 27.640625 -3.671875 26.257812 -2.0625 24.3125 -0.96875 C 22.363281 0.125 19.707031 0.671875 16.34375 0.671875 Z M 16.34375 0.671875 "/></g></g><g style="fill:rgb(0%,27.839661%,10.5896%);fill-opacity:1;"><g transform="translate(319.084109, 219.310796)"><path style="stroke:none;" d=""/></g></g><g style="fill:rgb(0%,27.839661%,10.5896%);fill-opacity:1;"><g transform="translate(116.653962, 264.344328)"><path style="stroke:none;" d="M 4.890625 0 L 14.320312 0 L 14.320312 -39.699219 L 9.570312 -39.699219 C 9.570312 -36.933594 4.890625 -29.277344 1.773438 -28.214844 L 1.773438 -27.433594 C 2.695312 -27.71875 3.828125 -28.425781 4.890625 -29.488281 Z M 4.890625 0 "/></g></g><g style="fill:rgb(0%,27.839661%,10.5896%);fill-opacity:1;"><g transform="translate(134.514537, 264.344328)"><path style="stroke:none;" d="M 18.714844 -40.195312 C 16.234375 -40.195312 3.542969 -39.484375 3.542969 -27.789062 C 3.542969 -13.609375 21.976562 -14.035156 26.230469 -20.0625 L 26.230469 -19.707031 C 26.230469 -10.207031 26.085938 0 18.925781 0 C 15.382812 0 12.832031 -2.695312 13.609375 -7.230469 C 14.035156 -9.640625 16.234375 -9.851562 16.234375 -9.851562 C 16.234375 -12.902344 13.894531 -15.59375 10.277344 -15.59375 C 7.371094 -15.59375 5.105469 -13.679688 5.105469 -10.703125 C 5.105469 -4.75 11.980469 0.707031 18.925781 0.707031 C 29.914062 0.707031 37.855469 -8.507812 37.855469 -19.777344 C 37.855469 -30.625 29.773438 -40.195312 18.714844 -40.195312 Z M 19.847656 -17.652344 C 16.515625 -17.652344 13.183594 -19.496094 13.183594 -28.640625 C 13.183594 -35.160156 14.816406 -39.484375 18.714844 -39.484375 C 24.03125 -39.484375 25.945312 -31.96875 26.230469 -22.046875 C 25.875 -19.777344 22.824219 -17.652344 19.847656 -17.652344 Z M 19.847656 -17.652344 "/></g></g><g style="fill:rgb(0%,27.839661%,10.5896%);fill-opacity:1;"><g transform="translate(175.905705, 264.344328)"><path style="stroke:none;" d="M 17.226562 0.707031 C 26.582031 0.707031 36.222656 -3.6875 36.222656 -11.765625 C 36.222656 -17.367188 31.546875 -20.699219 26.511719 -23.320312 C 28.355469 -24.597656 32.679688 -28 32.679688 -32.324219 C 32.679688 -38.136719 26.015625 -40.195312 20.628906 -40.195312 C 12.40625 -40.195312 3.757812 -34.875 3.757812 -28.425781 C 3.757812 -23.960938 6.449219 -20.910156 9.925781 -18.429688 C 8.363281 -17.652344 1.773438 -13.894531 1.773438 -8.789062 C 1.773438 -2.976562 8.363281 0.707031 17.226562 0.707031 Z M 25.945312 -23.746094 C 19.28125 -27.007812 11.839844 -28.992188 11.839844 -33.316406 C 11.839844 -37.855469 17.011719 -39.484375 20.628906 -39.484375 C 25.519531 -39.484375 29.703125 -36.578125 29.703125 -31.402344 C 29.703125 -27.363281 27.71875 -25.164062 25.945312 -23.746094 Z M 17.226562 0 C 11.839844 0 5.527344 -3.617188 5.527344 -9.640625 C 5.527344 -14.816406 9.144531 -17.296875 10.421875 -17.933594 C 17.652344 -13.328125 28.566406 -10.847656 28.566406 -5.671875 C 28.566406 -1.703125 20.839844 0 17.226562 0 Z M 17.226562 0 "/></g></g><g style="fill:rgb(0%,27.839661%,10.5896%);fill-opacity:1;"><g transform="translate(213.894866, 264.344328)"><path style="stroke:none;" d="M 3.828125 0 L 4.820312 0 L 18.5 -15.808594 L 29.984375 0 L 43.382812 0 L 25.804688 -25.308594 L 38.28125 -39.699219 L 37.359375 -39.699219 L 25.378906 -25.945312 L 15.808594 -39.699219 L 1.0625 -39.699219 L 18.078125 -16.375 Z M 3.828125 0 "/></g></g><g style="fill:rgb(0%,27.839661%,10.5896%);fill-opacity:1;"><g transform="translate(186.532052, 315.369118)"><path style="stroke:none;" d=""/></g></g><g clip-rule="nonzero" clip-path="url(#clip1)"><path style=" stroke:none;fill-rule:nonzero;fill:rgb(70.588684%,59.21936%,35.289001%);fill-opacity:1;" d="M 295.710938 52.335938 C 295.710938 52.949219 295.710938 53.652344 295.535156 54.269531 L 281.035156 112.292969 C 280.332031 115.195312 277.695312 117.304688 274.707031 117.304688 L 187.714844 117.746094 L 100.632812 117.746094 C 97.644531 117.746094 95.007812 115.722656 94.21875 112.734375 L 79.71875 54.53125 C 79.542969 53.828125 79.542969 53.125 79.542969 52.511719 C 73.917969 50.753906 69.875 45.476562 69.875 39.324219 C 69.875 31.675781 76.113281 25.433594 83.761719 25.433594 C 91.40625 25.433594 97.644531 31.675781 97.644531 39.324219 C 97.644531 43.632812 95.710938 47.5 92.546875 50.050781 L 110.738281 68.335938 C 115.21875 72.90625 121.632812 75.546875 128.136719 75.546875 C 135.867188 75.546875 143.160156 71.851562 147.820312 65.785156 L 177.609375 26.222656 C 175.058594 23.761719 173.566406 20.246094 173.566406 16.464844 C 173.566406 8.816406 179.804688 2.574219 187.449219 2.574219 C 195.09375 2.574219 201.332031 8.816406 201.332031 16.464844 C 201.332031 20.15625 199.839844 23.5 197.46875 26.046875 L 227.082031 65.699219 C 231.738281 71.851562 239.03125 75.546875 246.765625 75.546875 C 253.355469 75.546875 259.503906 72.996094 264.164062 68.335938 L 282.441406 50.050781 C 279.277344 47.5 277.257812 43.632812 277.257812 39.234375 C 277.257812 31.585938 283.496094 25.34375 291.140625 25.34375 C 298.785156 25.34375 305.023438 31.585938 305.023438 39.234375 C 304.9375 45.300781 301.070312 50.402344 295.710938 52.335938 Z M 279.628906 138.40625 C 279.628906 134.800781 276.640625 131.8125 273.039062 131.8125 L 102.566406 131.8125 C 98.960938 131.8125 95.972656 134.800781 95.972656 138.40625 L 95.972656 154.230469 C 95.972656 157.835938 98.960938 160.824219 102.566406 160.824219 L 273.039062 160.824219 C 276.640625 160.824219 279.628906 157.835938 279.628906 154.230469 Z M 279.628906 138.40625 "/></g><g clip-rule="nonzero" clip-path="url(#clip2)"><path style=" stroke:none;fill-rule:nonzero;fill:rgb(70.588684%,59.21936%,35.289001%);fill-opacity:1;" d="M 187.417969 374.515625 L 268.414062 331.9375 L 106.414062 331.9375 Z M 187.417969 374.515625 "/></g><g clip-rule="nonzero" clip-path="url(#clip3)"><path style=" stroke:none;fill-rule:nonzero;fill:rgb(70.588684%,59.21936%,35.289001%);fill-opacity:1;" d="M 106.414062 176.210938 L 268.414062 176.210938 L 268.414062 331.9375 L 106.414062 331.9375 Z M 106.414062 176.210938 "/></g></g></svg>