<?xml version="1.0" encoding="UTF-8"?><svg xmlns="http://www.w3.org/2000/svg" xmlns:xlink="http://www.w3.org/1999/xlink" width="375pt" zoomAndPan="magnify" viewBox="0 0 375 374.999991" height="374.999991pt" preserveAspectRatio="xMidYMid meet" version="1.2"><defs><g/><clipPath xml:id="clip1" id="clip1"><path d="M 28.4375 161 L 280 161 L 280 296 L 28.4375 296 Z M 28.4375 161 "/></clipPath></defs><g xml:id="surface1" id="surface1"><rect x="0" width="375" y="0" height="374.999991" style="fill:rgb(100%,100%,100%);fill-opacity:1;stroke:none;"/><rect x="0" width="375" y="0" height="374.999991" style="fill:rgb(100%,100%,100%);fill-opacity:1;stroke:none;"/><rect x="0" width="375" y="0" height="374.999991" style="fill:rgb(49.409485%,85.099792%,34.118652%);fill-opacity:1;stroke:none;"/><path style=" stroke:none;fill-rule:nonzero;fill:rgb(100%,98.81897%,96.469116%);fill-opacity:1;" d="M 247.953125 43.386719 C 243.597656 40.433594 237.726562 36.574219 233.207031 33.871094 L 228.5 31.304688 C 190.082031 12.597656 151.882812 13.835938 150.273438 13.898438 C 149.183594 13.960938 147.726562 14.027344 146.636719 14.101562 C 170.644531 13.144531 219.210938 22.789062 247.953125 43.386719 "/><path style=" stroke:none;fill-rule:nonzero;fill:rgb(100%,98.81897%,96.469116%);fill-opacity:1;" d="M 304.742188 122.835938 L 303.046875 117.640625 C 301.128906 112.734375 298.550781 106.191406 296.359375 101.402344 C 267.375 50.46875 145.390625 29.613281 90.835938 33.167969 C 168.160156 34.40625 286.945312 69.117188 304.742188 122.835938 "/><path style=" stroke:none;fill-rule:nonzero;fill:rgb(100%,98.81897%,96.469116%);fill-opacity:1;" d="M 303.523438 217.242188 C 305.363281 210.933594 307.601562 202.453125 308.984375 196.03125 L 309.722656 191.644531 C 314.472656 125.46875 154.335938 81.269531 48.179688 84.902344 C 185.5 93.800781 323.875 152.285156 303.523438 217.242188 "/><g clip-rule="nonzero" clip-path="url(#clip1)"><path style=" stroke:none;fill-rule:nonzero;fill:rgb(100%,98.81897%,96.469116%);fill-opacity:1;" d="M 244.039062 295.714844 C 249 292.070312 255.46875 287.011719 260.179688 283.054688 C 263.097656 280.242188 267.035156 276.546875 269.824219 273.613281 C 322.859375 211.324219 156.917969 159.417969 28.488281 161.082031 C 221.144531 178.792969 306.34375 247.476562 248.433594 292.527344 C 247.148438 293.527344 245.359375 294.757812 244.039062 295.714844 "/></g><path style=" stroke:none;fill-rule:nonzero;fill:rgb(100%,98.81897%,96.469116%);fill-opacity:1;" d="M 156.726562 316.46875 C 179.003906 327.582031 220.378906 316.152344 222.636719 294.1875 C 225.730469 264.066406 131.878906 234.269531 43.308594 237.25 C 168.523438 246.28125 227.480469 286.820312 199.640625 308.492188 C 189.75 316.191406 169.292969 319.992188 156.726562 316.46875 "/><g style="fill:rgb(100%,98.81897%,96.469116%);fill-opacity:1;"><g transform="translate(94.816405, 356.499997)"><path style="stroke:none;" d="M 10.8125 -14.234375 L 13.765625 -14.234375 L 13.765625 0 L 11.4375 0 L 4.34375 -9.078125 L 4.34375 0 L 1.421875 0 L 1.421875 -14.234375 L 3.71875 -14.234375 L 10.8125 -5.1875 Z M 10.8125 -14.234375 "/></g></g><g style="fill:rgb(100%,98.81897%,96.469116%);fill-opacity:1;"><g transform="translate(110.010415, 356.499997)"><path style="stroke:none;" d="M 11.078125 -14.234375 L 14.140625 -14.234375 L 14.140625 0 L 11.078125 0 L 11.078125 -5.984375 L 4.484375 -5.984375 L 4.484375 0 L 1.421875 0 L 1.421875 -14.234375 L 4.484375 -14.234375 L 4.484375 -8.484375 L 11.078125 -8.484375 Z M 11.078125 -14.234375 "/></g></g><g style="fill:rgb(100%,98.81897%,96.469116%);fill-opacity:1;"><g transform="translate(125.584267, 356.499997)"><path style="stroke:none;" d="M 12.296875 0 L 10.9375 -3.15625 L 4.28125 -3.15625 L 2.921875 0 L -0.21875 0 L 6.3125 -14.234375 L 8.84375 -14.234375 L 15.375 0 Z M 5.3125 -5.546875 L 9.921875 -5.546875 L 7.625 -10.875 Z M 5.3125 -5.546875 "/></g></g><g style="fill:rgb(100%,98.81897%,96.469116%);fill-opacity:1;"><g transform="translate(140.758285, 356.499997)"><path style="stroke:none;" d=""/></g></g><g style="fill:rgb(100%,98.81897%,96.469116%);fill-opacity:1;"><g transform="translate(146.376063, 356.499997)"><path style="stroke:none;" d="M 1.421875 -14.234375 L 6.921875 -14.234375 C 8.484375 -14.234375 9.820312 -13.953125 10.9375 -13.390625 C 12.0625 -12.835938 12.921875 -12.023438 13.515625 -10.953125 C 14.109375 -9.890625 14.40625 -8.617188 14.40625 -7.140625 C 14.40625 -5.648438 14.109375 -4.367188 13.515625 -3.296875 C 12.929688 -2.234375 12.078125 -1.414062 10.953125 -0.84375 C 9.835938 -0.28125 8.492188 0 6.921875 0 L 1.421875 0 Z M 6.71875 -2.515625 C 9.757812 -2.515625 11.28125 -4.054688 11.28125 -7.140625 C 11.28125 -10.191406 9.757812 -11.71875 6.71875 -11.71875 L 4.546875 -11.71875 L 4.546875 -2.515625 Z M 6.71875 -2.515625 "/></g></g><g style="fill:rgb(100%,98.81897%,96.469116%);fill-opacity:1;"><g transform="translate(161.789983, 356.499997)"><path style="stroke:none;" d="M 12.296875 0 L 10.9375 -3.15625 L 4.28125 -3.15625 L 2.921875 0 L -0.21875 0 L 6.3125 -14.234375 L 8.84375 -14.234375 L 15.375 0 Z M 5.3125 -5.546875 L 9.921875 -5.546875 L 7.625 -10.875 Z M 5.3125 -5.546875 "/></g></g><g style="fill:rgb(100%,98.81897%,96.469116%);fill-opacity:1;"><g transform="translate(176.964001, 356.499997)"><path style="stroke:none;" d="M 7.453125 0.1875 C 5.453125 0.1875 3.929688 -0.328125 2.890625 -1.359375 C 1.859375 -2.390625 1.34375 -3.894531 1.34375 -5.875 L 1.34375 -14.234375 L 4.40625 -14.234375 L 4.40625 -5.734375 C 4.40625 -4.609375 4.664062 -3.75 5.1875 -3.15625 C 5.71875 -2.5625 6.472656 -2.265625 7.453125 -2.265625 C 8.441406 -2.265625 9.195312 -2.5625 9.71875 -3.15625 C 10.238281 -3.75 10.5 -4.609375 10.5 -5.734375 L 10.5 -14.234375 L 13.578125 -14.234375 L 13.578125 -5.875 C 13.578125 -3.90625 13.050781 -2.398438 12 -1.359375 C 10.957031 -0.328125 9.441406 0.1875 7.453125 0.1875 Z M 7.453125 0.1875 "/></g></g><g style="fill:rgb(100%,98.81897%,96.469116%);fill-opacity:1;"><g transform="translate(191.878112, 356.499997)"><path style="stroke:none;" d=""/></g></g><g style="fill:rgb(100%,98.81897%,96.469116%);fill-opacity:1;"><g transform="translate(197.495891, 356.499997)"><path style="stroke:none;" d="M 4.703125 0 L 4.703125 -11.703125 L 0.234375 -11.703125 L 0.234375 -14.234375 L 12.3125 -14.234375 L 12.3125 -11.703125 L 7.859375 -11.703125 L 7.859375 0 Z M 4.703125 0 "/></g></g><g style="fill:rgb(100%,98.81897%,96.469116%);fill-opacity:1;"><g transform="translate(210.05094, 356.499997)"><path style="stroke:none;" d="M 7.453125 0.1875 C 5.453125 0.1875 3.929688 -0.328125 2.890625 -1.359375 C 1.859375 -2.390625 1.34375 -3.894531 1.34375 -5.875 L 1.34375 -14.234375 L 4.40625 -14.234375 L 4.40625 -5.734375 C 4.40625 -4.609375 4.664062 -3.75 5.1875 -3.15625 C 5.71875 -2.5625 6.472656 -2.265625 7.453125 -2.265625 C 8.441406 -2.265625 9.195312 -2.5625 9.71875 -3.15625 C 10.238281 -3.75 10.5 -4.609375 10.5 -5.734375 L 10.5 -14.234375 L 13.578125 -14.234375 L 13.578125 -5.875 C 13.578125 -3.90625 13.050781 -2.398438 12 -1.359375 C 10.957031 -0.328125 9.441406 0.1875 7.453125 0.1875 Z M 7.453125 0.1875 "/></g></g><g style="fill:rgb(100%,98.81897%,96.469116%);fill-opacity:1;"><g transform="translate(224.965051, 356.499997)"><path style="stroke:none;" d=""/></g></g><g style="fill:rgb(100%,98.81897%,96.469116%);fill-opacity:1;"><g transform="translate(230.582829, 356.499997)"><path style="stroke:none;" d="M 8.265625 -2.5 L 11.34375 -2.5 L 11.34375 0 L 2.0625 0 L 2.0625 -2.5 L 5.140625 -2.5 L 5.140625 -10.765625 L 2.265625 -9.0625 L 2.265625 -11.796875 L 6.4375 -14.234375 L 8.265625 -14.234375 Z M 8.265625 -2.5 "/></g></g><g style="fill:rgb(100%,98.81897%,96.469116%);fill-opacity:1;"><g transform="translate(242.578102, 356.499997)"><path style="stroke:none;" d="M 5.515625 -14.421875 C 7.367188 -14.421875 8.796875 -13.804688 9.796875 -12.578125 C 10.796875 -11.347656 11.296875 -9.601562 11.296875 -7.34375 C 11.296875 -5.78125 11.054688 -4.4375 10.578125 -3.3125 C 10.097656 -2.1875 9.410156 -1.320312 8.515625 -0.71875 C 7.628906 -0.113281 6.5625 0.1875 5.3125 0.1875 C 4.4375 0.1875 3.582031 0.046875 2.75 -0.234375 C 1.925781 -0.515625 1.222656 -0.910156 0.640625 -1.421875 L 1.65625 -3.65625 C 2.875 -2.738281 4.050781 -2.28125 5.1875 -2.28125 C 6.113281 -2.28125 6.832031 -2.65625 7.34375 -3.40625 C 7.863281 -4.164062 8.148438 -5.269531 8.203125 -6.71875 C 7.890625 -6.1875 7.445312 -5.765625 6.875 -5.453125 C 6.300781 -5.140625 5.660156 -4.984375 4.953125 -4.984375 C 4.128906 -4.984375 3.382812 -5.175781 2.71875 -5.5625 C 2.0625 -5.957031 1.550781 -6.503906 1.1875 -7.203125 C 0.820312 -7.910156 0.640625 -8.707031 0.640625 -9.59375 C 0.640625 -10.519531 0.847656 -11.347656 1.265625 -12.078125 C 1.691406 -12.816406 2.273438 -13.390625 3.015625 -13.796875 C 3.753906 -14.210938 4.585938 -14.421875 5.515625 -14.421875 Z M 5.703125 -7.4375 C 6.335938 -7.4375 6.851562 -7.644531 7.25 -8.0625 C 7.644531 -8.488281 7.84375 -9.039062 7.84375 -9.71875 C 7.84375 -10.382812 7.640625 -10.925781 7.234375 -11.34375 C 6.835938 -11.769531 6.328125 -11.984375 5.703125 -11.984375 C 5.054688 -11.984375 4.539062 -11.773438 4.15625 -11.359375 C 3.78125 -10.941406 3.59375 -10.394531 3.59375 -9.71875 C 3.59375 -9.007812 3.78125 -8.453125 4.15625 -8.046875 C 4.53125 -7.640625 5.046875 -7.4375 5.703125 -7.4375 Z M 5.703125 -7.4375 "/></g></g><g style="fill:rgb(100%,98.81897%,96.469116%);fill-opacity:1;"><g transform="translate(254.573375, 356.499997)"><path style="stroke:none;" d="M 8.5625 -7.34375 C 9.476562 -7.101562 10.1875 -6.679688 10.6875 -6.078125 C 11.195312 -5.484375 11.453125 -4.75 11.453125 -3.875 C 11.453125 -3.050781 11.222656 -2.332031 10.765625 -1.71875 C 10.304688 -1.113281 9.660156 -0.648438 8.828125 -0.328125 C 8.003906 -0.00390625 7.0625 0.15625 6 0.15625 C 4.9375 0.15625 3.988281 -0.00390625 3.15625 -0.328125 C 2.332031 -0.648438 1.691406 -1.113281 1.234375 -1.71875 C 0.773438 -2.332031 0.546875 -3.050781 0.546875 -3.875 C 0.546875 -4.75 0.800781 -5.488281 1.3125 -6.09375 C 1.820312 -6.695312 2.53125 -7.113281 3.4375 -7.34375 C 2.632812 -7.601562 2.003906 -8.015625 1.546875 -8.578125 C 1.097656 -9.140625 0.875 -9.800781 0.875 -10.5625 C 0.875 -11.332031 1.09375 -12.007812 1.53125 -12.59375 C 1.976562 -13.1875 2.59375 -13.640625 3.375 -13.953125 C 4.15625 -14.265625 5.03125 -14.421875 6 -14.421875 C 6.96875 -14.421875 7.84375 -14.265625 8.625 -13.953125 C 9.40625 -13.640625 10.015625 -13.1875 10.453125 -12.59375 C 10.898438 -12.007812 11.125 -11.332031 11.125 -10.5625 C 11.125 -9.789062 10.890625 -9.117188 10.421875 -8.546875 C 9.960938 -7.972656 9.34375 -7.570312 8.5625 -7.34375 Z M 6 -12.015625 C 5.332031 -12.015625 4.800781 -11.859375 4.40625 -11.546875 C 4.007812 -11.242188 3.8125 -10.800781 3.8125 -10.21875 C 3.8125 -9.65625 4.007812 -9.203125 4.40625 -8.859375 C 4.800781 -8.523438 5.332031 -8.289062 6 -8.15625 C 6.664062 -8.289062 7.195312 -8.523438 7.59375 -8.859375 C 7.988281 -9.203125 8.1875 -9.65625 8.1875 -10.21875 C 8.1875 -10.800781 7.988281 -11.242188 7.59375 -11.546875 C 7.195312 -11.859375 6.664062 -12.015625 6 -12.015625 Z M 6 -2.234375 C 6.789062 -2.234375 7.414062 -2.394531 7.875 -2.71875 C 8.332031 -3.039062 8.5625 -3.507812 8.5625 -4.125 C 8.5625 -4.695312 8.332031 -5.160156 7.875 -5.515625 C 7.414062 -5.878906 6.789062 -6.117188 6 -6.234375 C 5.207031 -6.117188 4.582031 -5.878906 4.125 -5.515625 C 3.664062 -5.160156 3.4375 -4.695312 3.4375 -4.125 C 3.4375 -3.507812 3.664062 -3.039062 4.125 -2.71875 C 4.582031 -2.394531 5.207031 -2.234375 6 -2.234375 Z M 6 -2.234375 "/></g></g><g style="fill:rgb(100%,98.81897%,96.469116%);fill-opacity:1;"><g transform="translate(266.568648, 356.499997)"><path style="stroke:none;" d="M 8.5625 -7.21875 L 14 0 L 10.359375 0 L 6.796875 -4.921875 L 3.234375 0 L -0.40625 0 L 5.015625 -7.21875 L -0.234375 -14.234375 L 3.40625 -14.234375 L 6.796875 -9.5 L 10.234375 -14.234375 L 13.875 -14.234375 Z M 8.5625 -7.21875 "/></g></g></g></svg>